# xmcd
# 
# Track frame offsets:
#     150
#     16828
#     53147
#     69195
#     106429
#     136686
#     158720
#     187306
#     209500
#     239021
#     263774
#     291405
#     317328
# 
# Disc length: 4584
# 
# Revision: 1
# Processed by: cddbd v1.5.2PL0 Copyright (c) Steve Scherf et al.
# Submitted via: fre:ac v1.0.31
# 
DISCID=ba11e60d
DTITLE=Louisiana Red - Always Played the Blues
DYEAR=2012
DGENRE=Blues
TTITLE0=Valerie
TTITLE1=This Little Letter
TTITLE2=Brought Up the Hard Way
TTITLE3=Sun Goes Down
TTITLE4=Down So Long
TTITLE5=Vivienne
TTITLE6=Hello Mean Old World
TTITLE7=Leaving Town
TTITLE8=Steel On My Hand
TTITLE9=The Best Place
TTITLE10=I'm Leaving
TTITLE11=Feeling Inside
TTITLE12=Mambo Mumbo
EXTD=
EXTT0=
EXTT1=
EXTT2=
EXTT3=
EXTT4=
EXTT5=
EXTT6=
EXTT7=
EXTT8=
EXTT9=
EXTT10=
EXTT11=
EXTT12=
PLAYORDER=
